#N canvas 364 345 335 268 10;
#X obj 60 28 inlet;
#X obj 60 212 outlet;
#X obj 226 52 inlet;
#X obj 60 141 comport;
#X obj 99 163 print errors;
#X obj 60 53 slipenc 65536;
#X obj 60 185 slipdec 65536;
#X connect 0 0 5 0;
#X connect 2 0 3 0;
#X connect 3 0 6 0;
#X connect 3 1 4 0;
#X connect 5 0 3 0;
#X connect 6 0 1 0;
