#N canvas 0 153 739 482 10;
#X obj 597 18 bng 25 250 50 0 SAVE-ALL empty SAVE-ALL 27 7 0 10 -258113
-262144 -1;
#X obj 597 48 bng 25 250 50 0 RELOAD-ALL empty RELOAD-ALL 27 7 0 10
-159808 -262144 -1;
#N canvas 501 322 361 201 s 0;
#X obj 78 6 inlet;
#X obj 23 43 bng 15 250 50 0 empty RELOAD-ALL empty 17 7 0 10 -224036
-1 -1;
#X msg 78 58 1.2;
#X obj 78 80 outlet;
#N canvas 3 90 341 467 randomcolor 0;
#X obj 176 172 t b f;
#X obj 176 262 +;
#X obj 176 284 t b f;
#X obj 176 372 +;
#X obj 77 335 * -65536;
#X obj 96 225 * -256;
#X obj 176 150 * -1;
#X obj 176 394 - 1;
#X obj 77 313 int;
#X obj 96 203 int;
#X obj 176 128 int;
#X obj 77 67 t b b b;
#X obj 77 47 bng 15 250 50 0 empty empty empty 17 7 0 10 -262144 -1
-1;
#X obj 77 25 inlet;
#X text 64 233 R;
#X text 84 131 G;
#X text 144 89 B;
#X obj 176 416 outlet;
#X obj 176 84 random 155;
#X obj 96 159 random 155;
#X obj 77 269 random 155;
#X obj 176 106 + 100;
#X obj 96 181 + 100;
#X obj 77 291 + 100;
#X connect 0 0 1 0;
#X connect 0 1 1 1;
#X connect 1 0 2 0;
#X connect 2 0 3 0;
#X connect 2 1 3 1;
#X connect 3 0 7 0;
#X connect 4 0 3 0;
#X connect 5 0 1 0;
#X connect 6 0 0 0;
#X connect 7 0 17 0;
#X connect 8 0 4 0;
#X connect 9 0 5 0;
#X connect 10 0 6 0;
#X connect 11 0 20 0;
#X connect 11 1 19 0;
#X connect 11 2 18 0;
#X connect 12 0 11 0;
#X connect 13 0 12 0;
#X connect 18 0 21 0;
#X connect 19 0 22 0;
#X connect 20 0 23 0;
#X connect 21 0 10 0;
#X connect 22 0 9 0;
#X connect 23 0 8 0;
#X restore 23 118 pd randomcolor;
#X msg 23 140 color \$1;
#X obj 78 28 t a b;
#X connect 0 0 6 0;
#X connect 1 0 2 0;
#X connect 2 0 3 0;
#X connect 4 0 5 0;
#X connect 5 0 1 0;
#X connect 6 0 2 0;
#X connect 6 1 4 0;
#X coords 0 -1 1 1 21 21 2 20 40;
#X restore 410 270 pd s;
#N canvas 501 322 361 201 s 0;
#X obj 78 6 inlet;
#X obj 23 43 bng 15 250 50 0 empty RELOAD-ALL empty 17 7 0 10 -108250
-1 -1;
#X msg 78 58 0.9;
#X obj 78 80 outlet;
#N canvas 3 90 341 467 randomcolor 0;
#X obj 176 172 t b f;
#X obj 176 262 +;
#X obj 176 284 t b f;
#X obj 176 372 +;
#X obj 77 335 * -65536;
#X obj 96 225 * -256;
#X obj 176 150 * -1;
#X obj 176 394 - 1;
#X obj 77 313 int;
#X obj 96 203 int;
#X obj 176 128 int;
#X obj 77 67 t b b b;
#X obj 77 47 bng 15 250 50 0 empty empty empty 17 7 0 10 -262144 -1
-1;
#X obj 77 25 inlet;
#X text 64 233 R;
#X text 84 131 G;
#X text 144 89 B;
#X obj 176 416 outlet;
#X obj 176 84 random 155;
#X obj 96 159 random 155;
#X obj 77 269 random 155;
#X obj 176 106 + 100;
#X obj 96 181 + 100;
#X obj 77 291 + 100;
#X connect 0 0 1 0;
#X connect 0 1 1 1;
#X connect 1 0 2 0;
#X connect 2 0 3 0;
#X connect 2 1 3 1;
#X connect 3 0 7 0;
#X connect 4 0 3 0;
#X connect 5 0 1 0;
#X connect 6 0 0 0;
#X connect 7 0 17 0;
#X connect 8 0 4 0;
#X connect 9 0 5 0;
#X connect 10 0 6 0;
#X connect 11 0 20 0;
#X connect 11 1 19 0;
#X connect 11 2 18 0;
#X connect 12 0 11 0;
#X connect 13 0 12 0;
#X connect 18 0 21 0;
#X connect 19 0 22 0;
#X connect 20 0 23 0;
#X connect 21 0 10 0;
#X connect 22 0 9 0;
#X connect 23 0 8 0;
#X restore 23 118 pd randomcolor;
#X msg 23 140 color \$1;
#X obj 78 28 t a b;
#X connect 0 0 6 0;
#X connect 1 0 2 0;
#X connect 2 0 3 0;
#X connect 4 0 5 0;
#X connect 5 0 1 0;
#X connect 6 0 2 0;
#X connect 6 1 4 0;
#X coords 0 -1 1 1 21 21 2 20 40;
#X restore 260 400 pd s;
#N canvas 501 322 361 201 s 0;
#X obj 78 6 inlet;
#X obj 23 43 bng 15 250 50 0 empty RELOAD-ALL empty 17 7 0 10 -244396
-1 -1;
#X msg 78 58 1.38;
#X obj 78 80 outlet;
#N canvas 3 90 341 467 randomcolor 0;
#X obj 176 172 t b f;
#X obj 176 262 +;
#X obj 176 284 t b f;
#X obj 176 372 +;
#X obj 77 335 * -65536;
#X obj 96 225 * -256;
#X obj 176 150 * -1;
#X obj 176 394 - 1;
#X obj 77 313 int;
#X obj 96 203 int;
#X obj 176 128 int;
#X obj 77 67 t b b b;
#X obj 77 47 bng 15 250 50 0 empty empty empty 17 7 0 10 -262144 -1
-1;
#X obj 77 25 inlet;
#X text 64 233 R;
#X text 84 131 G;
#X text 144 89 B;
#X obj 176 416 outlet;
#X obj 176 84 random 155;
#X obj 96 159 random 155;
#X obj 77 269 random 155;
#X obj 176 106 + 100;
#X obj 96 181 + 100;
#X obj 77 291 + 100;
#X connect 0 0 1 0;
#X connect 0 1 1 1;
#X connect 1 0 2 0;
#X connect 2 0 3 0;
#X connect 2 1 3 1;
#X connect 3 0 7 0;
#X connect 4 0 3 0;
#X connect 5 0 1 0;
#X connect 6 0 0 0;
#X connect 7 0 17 0;
#X connect 8 0 4 0;
#X connect 9 0 5 0;
#X connect 10 0 6 0;
#X connect 11 0 20 0;
#X connect 11 1 19 0;
#X connect 11 2 18 0;
#X connect 12 0 11 0;
#X connect 13 0 12 0;
#X connect 18 0 21 0;
#X connect 19 0 22 0;
#X connect 20 0 23 0;
#X connect 21 0 10 0;
#X connect 22 0 9 0;
#X connect 23 0 8 0;
#X restore 23 118 pd randomcolor;
#X msg 23 140 color \$1;
#X obj 78 28 t a b;
#X connect 0 0 6 0;
#X connect 1 0 2 0;
#X connect 2 0 3 0;
#X connect 4 0 5 0;
#X connect 5 0 1 0;
#X connect 6 0 2 0;
#X connect 6 1 4 0;
#X coords 0 -1 1 1 21 21 2 20 40;
#X restore 410 400 pd s;
#X floatatom 260 229 5 0 0 0 - - -;
#X obj 260 208 / 50;
#N canvas 501 322 361 201 s 0;
#X obj 78 6 inlet;
#X obj 23 43 bng 15 250 50 0 empty RELOAD-ALL empty 17 7 0 10 -138618
-1 -1;
#X obj 78 80 outlet;
#N canvas 3 90 341 467 randomcolor 0;
#X obj 176 172 t b f;
#X obj 176 262 +;
#X obj 176 284 t b f;
#X obj 176 372 +;
#X obj 77 335 * -65536;
#X obj 96 225 * -256;
#X obj 176 150 * -1;
#X obj 176 394 - 1;
#X obj 77 313 int;
#X obj 96 203 int;
#X obj 176 128 int;
#X obj 77 67 t b b b;
#X obj 77 47 bng 15 250 50 0 empty empty empty 17 7 0 10 -262144 -1
-1;
#X obj 77 25 inlet;
#X text 64 233 R;
#X text 84 131 G;
#X text 144 89 B;
#X obj 176 416 outlet;
#X obj 176 84 random 155;
#X obj 96 159 random 155;
#X obj 77 269 random 155;
#X obj 176 106 + 100;
#X obj 96 181 + 100;
#X obj 77 291 + 100;
#X connect 0 0 1 0;
#X connect 0 1 1 1;
#X connect 1 0 2 0;
#X connect 2 0 3 0;
#X connect 2 1 3 1;
#X connect 3 0 7 0;
#X connect 4 0 3 0;
#X connect 5 0 1 0;
#X connect 6 0 0 0;
#X connect 7 0 17 0;
#X connect 8 0 4 0;
#X connect 9 0 5 0;
#X connect 10 0 6 0;
#X connect 11 0 20 0;
#X connect 11 1 19 0;
#X connect 11 2 18 0;
#X connect 12 0 11 0;
#X connect 13 0 12 0;
#X connect 18 0 21 0;
#X connect 19 0 22 0;
#X connect 20 0 23 0;
#X connect 21 0 10 0;
#X connect 22 0 9 0;
#X connect 23 0 8 0;
#X restore 23 118 pd randomcolor;
#X msg 23 140 color \$1;
#X obj 78 28 t a b;
#X msg 78 58 1.1;
#X connect 0 0 5 0;
#X connect 1 0 6 0;
#X connect 3 0 4 0;
#X connect 4 0 1 0;
#X connect 5 0 6 0;
#X connect 5 1 3 0;
#X connect 6 0 2 0;
#X coords 0 -1 1 1 21 21 2 20 40;
#X restore 260 270 pd s;
#X obj 13 139 unpackOSC;
#X obj 100 18 loadbang;
#X msg 140 104 devices;
#X obj 13 160 routeOSC /note;
#X floatatom 13 202 5 0 0 0 - - -;
#X floatatom 76 202 5 0 0 0 - - -;
#X floatatom 139 202 5 0 0 0 - - -;
#X obj 13 118 o.io.slipserial;
#X msg 100 65 devicename /dev/tty.HC-06-DevB \, baud 57600 \, pollintervall
1 \, verbose 1;
#X msg 208 121 close;
#X obj 13 222 pack f f f;
#X obj 13 243 s NOTE;
#X obj 13 181 routeOSC /pitch /velocity /onoff;
#X obj 260 249 piano_samplet 1.wav 60;
#X obj 263 188 hsl 128 15 0 127 0 0 empty empty empty -2 -8 0 10 -262144
-1 -1 0 1;
#X floatatom 410 229 5 0 0 0 - - -;
#X obj 410 208 / 50;
#X obj 413 188 hsl 128 15 0 127 0 0 empty empty empty -2 -8 0 10 -262144
-1 -1 0 1;
#X obj 410 249 piano_samplet 2.wav 48;
#X floatatom 260 359 5 0 0 0 - - -;
#X obj 260 338 / 50;
#X obj 263 318 hsl 128 15 0 127 0 0 empty empty empty -2 -8 0 10 -262144
-1 -1 0 1;
#X floatatom 410 359 5 0 0 0 - - -;
#X obj 410 338 / 50;
#X obj 413 318 hsl 128 15 0 127 0 0 empty empty empty -2 -8 0 10 -262144
-1 -1 0 1;
#X obj 260 379 piano_samplet 3.wav 62;
#X obj 410 379 piano_samplet 4.wav 64;
#X msg 13 32 \; pd dsp 1;
#X text 12 276 dependencies: comport \, osc \, slip;
#X connect 2 0 26 1;
#X connect 3 0 33 1;
#X connect 4 0 34 1;
#X connect 5 0 21 0;
#X connect 6 0 5 0;
#X connect 7 0 21 1;
#X connect 8 0 11 0;
#X connect 9 0 35 0;
#X connect 10 0 15 1;
#X connect 11 0 20 0;
#X connect 12 0 18 0;
#X connect 13 0 18 1;
#X connect 14 0 18 2;
#X connect 15 0 8 0;
#X connect 16 0 15 1;
#X connect 17 0 15 1;
#X connect 18 0 19 0;
#X connect 20 0 12 0;
#X connect 20 1 13 0;
#X connect 20 2 14 0;
#X connect 21 0 7 0;
#X connect 22 0 6 0;
#X connect 23 0 26 0;
#X connect 24 0 23 0;
#X connect 25 0 24 0;
#X connect 26 0 2 0;
#X connect 27 0 33 0;
#X connect 28 0 27 0;
#X connect 29 0 28 0;
#X connect 30 0 34 0;
#X connect 31 0 30 0;
#X connect 32 0 31 0;
#X connect 33 0 3 0;
#X connect 34 0 4 0;
#X coords 0 482 1 481 85 60 0;
