#N canvas 765 240 475 558 10;
#X obj 25 69 sources/looper2~;
#X obj 25 508 dac~;
#X obj 25 265 mx~;
#X obj 106 265 mx~;
#X obj 25 15 loadbang;
#X obj 25 489 *~;
#X obj 106 489 *~;
#X obj 196 441 vline~;
#X msg 196 422 \$1 1000;
#X text 292 22 arguments;
#X text 292 42 \$1 : src (filename);
#X text 292 52 \$2 : key (keycode);
#X text 292 82 inlets;
#X obj 343 372 tgl 15 0 empty empty empty 17 7 0 10 -262144 -1 -1 0
1;
#X obj 343 392 switch~;
#X obj 127 200 inlet;
#X text 292 102 1 : gain;
#X text 292 112 2 : gain-reload;
#X text 292 162 1 : gain-save;
#X text 292 142 outlets;
#X obj 148 220 inlet;
#X obj 178 362 outlet;
#X obj 284 253 t a a;
#X msg 393 285 stop;
#X obj 284 196 getmidi \$2;
#X obj 311 274 sel 1 0;
#X msg 311 328 1;
#X msg 393 336 0;
#X obj 393 315 del 1000;
#X obj 311 301 t b b;
#X obj 25 42 symbol \$1;
#X connect 0 0 2 0;
#X connect 0 1 3 0;
#X connect 2 0 5 0;
#X connect 3 0 6 0;
#X connect 3 1 21 0;
#X connect 4 0 30 0;
#X connect 5 0 1 0;
#X connect 6 0 1 1;
#X connect 7 0 5 1;
#X connect 7 0 6 1;
#X connect 8 0 7 0;
#X connect 13 0 14 0;
#X connect 15 0 2 1;
#X connect 15 0 3 1;
#X connect 20 0 2 2;
#X connect 20 0 3 2;
#X connect 22 0 8 0;
#X connect 22 1 25 0;
#X connect 23 0 28 0;
#X connect 24 0 22 0;
#X connect 25 0 29 0;
#X connect 25 1 28 0;
#X connect 26 0 13 0;
#X connect 27 0 13 0;
#X connect 28 0 27 0;
#X connect 29 0 26 0;
#X connect 29 1 23 0;
#X connect 30 0 0 0;
